<?xml version="1.0" standalone="no"?>
<!DOCTYPE svg PUBLIC "-//W3C//DTD SVG 20010904//EN"
 "http://www.w3.org/TR/2001/REC-SVG-20010904/DTD/svg10.dtd">
<svg version="1.0" xmlns="http://www.w3.org/2000/svg"
 width="16.000000pt" height="16.000000pt" viewBox="0 0 16.000000 16.000000"
 preserveAspectRatio="xMidYMid meet">
<metadata>
Created by potrace 1.11, written by Peter Selinger 2001-2013
</metadata>
<g transform="translate(0.000000,16.000000) scale(0.002286,-0.002286)"
fill="#000000" stroke="none">
<path d="M5111 6984 c-180 -48 -329 -207 -361 -384 -7 -37 -9 -1099 -8 -3135
l3 -3080 22 -53 c64 -157 153 -243 318 -310 35 -14 114 -16 625 -19 365 -2
602 1 630 7 79 18 183 76 242 135 63 63 102 130 129 219 18 59 19 165 19 3135
0 2794 -2 3078 -16 3130 -50 176 -175 301 -351 351 -61 18 -106 19 -632 19
-464 0 -576 -3 -620 -15z"/>
<path d="M2905 5163 c-56 -13 -156 -60 -204 -97 -96 -72 -172 -198 -188 -310
-3 -23 -6 -1008 -6 -2191 l0 -2150 23 -68 c41 -126 131 -233 243 -289 109 -56
115 -56 730 -57 567 -1 567 -1 641 23 171 54 290 179 336 353 15 57 16 253 14
2225 -2 2369 3 2185 -59 2309 -35 69 -135 167 -205 201 -119 58 -124 59 -740
57 -311 -1 -574 -4 -585 -6z"/>
<path d="M648 3024 c-175 -42 -308 -172 -362 -353 -14 -48 -16 -174 -16 -1151
0 -1205 -3 -1135 61 -1262 35 -70 121 -157 195 -197 108 -59 138 -61 737 -61
320 0 566 4 598 10 134 25 280 133 340 252 60 119 58 82 58 1263 0 1001 -2
1085 -18 1145 -50 182 -183 312 -363 355 -89 21 -1143 21 -1230 -1z"/>
</g>
</svg>
